<svg width="352" height="90" viewBox="0 0 352 90" fill="none" xmlns="http://www.w3.org/2000/svg">
<path d="M91.7173 23.0777C91.7173 16.7049 96.8834 11.5388 103.256 11.5388H172.489C178.862 11.5388 184.028 16.7049 184.028 23.0777V69.233C184.028 75.6057 178.862 80.7718 172.489 80.7718H103.256C96.8834 80.7718 91.7173 75.6057 91.7173 69.233V23.0777Z" fill="url(#paint0_linear_8_211)"/>
<path d="M121.718 6.9233C121.718 3.09967 124.818 0 128.642 0H149.411C153.235 0 156.335 3.09967 156.335 6.9233V9.23107H151.206V7.25299C151.206 5.97845 150.173 4.94523 148.898 4.94523H129.154C127.88 4.94523 126.846 5.97845 126.846 7.253V9.23107H121.718V6.9233Z" fill="url(#paint1_linear_8_211)"/>
<path d="M120.565 49.617L124.026 80.7718H173.643C173.643 80.7718 180.566 78.4641 182.874 75.0024C185.182 71.5408 160.95 33.4626 160.95 33.4626C160.95 33.4626 130.443 30.6556 126.334 35.7704C117.862 46.3149 120.565 49.617 120.565 49.617Z" fill="url(#paint2_linear_8_211)" fill-opacity="0.15"/>
<path fill-rule="evenodd" clip-rule="evenodd" d="M125.704 30.001C122.228 30.001 119.41 32.5057 119.41 35.5956V86.5412C119.41 88.4531 120.96 90.0029 122.872 90.0029C124.784 90.0029 126.334 88.4531 126.334 86.5412V66.9252H154.656C158.132 66.9252 160.95 64.4204 160.95 61.3307V35.5956C160.95 32.5057 158.132 30.001 154.656 30.001H125.704ZM154.027 46.1553V42.8685C154.027 35.5956 148.258 35.5956 146.474 35.5956H133.886C130.41 35.5956 126.334 36.9243 126.334 42.8685V46.1553H154.027ZM126.334 48.4631V54.0577C126.334 58.848 130.41 60.0019 133.886 60.0019H146.474C151.719 60.0019 154.027 57.1475 154.027 54.0577V48.4631H126.334Z" fill="white"/>
<path d="M207.106 48.4631C207.106 62.4831 198.323 73.8485 187.49 73.8485C176.656 73.8485 167.874 62.4831 167.874 48.4631C167.874 34.4431 176.656 23.0777 187.49 23.0777C198.323 23.0777 207.106 34.4431 207.106 48.4631Z" fill="white"/>
<path d="M192.373 63.4543C189.234 63.4543 186.705 62.9374 184.785 61.9035C182.902 60.8696 181.536 59.2819 180.686 57.1403C179.837 54.9617 179.412 52.1555 179.412 48.7215C179.412 45.3984 179.856 42.7029 180.742 40.6351C181.628 38.5304 183.031 36.9796 184.951 35.9827C186.871 34.9488 189.345 34.4319 192.373 34.4319C195.438 34.4319 197.912 34.9488 199.795 35.9827C201.715 36.9796 203.118 38.5304 204.004 40.6351C204.927 42.7029 205.389 45.3984 205.389 48.7215C205.389 52.1555 204.964 54.9617 204.115 57.1403C203.266 59.2819 201.881 60.8696 199.961 61.9035C198.078 62.9374 195.548 63.4543 192.373 63.4543ZM192.373 57.3618C193.924 57.3618 195.087 57.0849 195.862 56.531C196.638 55.9402 197.155 55.0171 197.413 53.7617C197.708 52.4694 197.856 50.7893 197.856 48.7215C197.856 46.6907 197.69 45.0845 197.358 43.9029C197.025 42.6844 196.471 41.8167 195.696 41.2998C194.921 40.7828 193.813 40.5244 192.373 40.5244C190.97 40.5244 189.862 40.7828 189.05 41.2998C188.274 41.8167 187.72 42.6844 187.388 43.9029C187.056 45.0845 186.89 46.6907 186.89 48.7215C186.89 50.7893 187.019 52.4694 187.277 53.7617C187.573 55.0171 188.108 55.9402 188.884 56.531C189.659 57.0849 190.822 57.3618 192.373 57.3618Z" fill="black"/>
<path d="M210.428 62.8451V35.0411H217.795V38.3089C218.423 37.8289 219.198 37.3304 220.121 36.8135C221.044 36.2596 222.041 35.7611 223.112 35.318C224.22 34.838 225.272 34.5242 226.269 34.3765V41.5213C225.309 41.669 224.293 41.9275 223.223 42.2967C222.152 42.629 221.136 42.9983 220.176 43.4044C219.253 43.8106 218.459 44.1799 217.795 44.5122V62.8451H210.428Z" fill="black"/>
<path d="M239.865 63.5097C237.834 63.5097 236.191 63.2143 234.935 62.6235C233.68 62.0327 232.775 61.0173 232.221 59.5773C231.704 58.1003 231.446 56.051 231.446 53.4294V41.189H228.178V35.0411H231.446V27.6747H238.812V35.0411H245.902V41.189H238.812V51.4909C238.812 52.9309 238.868 54.0571 238.978 54.8694C239.126 55.6818 239.421 56.2541 239.865 56.5864C240.308 56.9187 240.991 57.0849 241.914 57.0849C242.172 57.0849 242.56 57.0664 243.077 57.0295C243.594 56.9926 244.111 56.9557 244.628 56.9187C245.145 56.8818 245.569 56.8449 245.902 56.808L246.123 62.7343C245.237 62.882 244.166 63.0482 242.911 63.2328C241.692 63.4174 240.677 63.5097 239.865 63.5097Z" fill="black"/>
<path d="M251.129 62.8451V41.189H248.359V35.0411H251.129V33.4349C251.129 30.8133 251.369 28.7455 251.849 27.2316C252.366 25.7177 253.233 24.6469 254.452 24.0192C255.67 23.3915 257.314 23.0776 259.381 23.0776C259.972 23.0776 260.674 23.1146 261.486 23.1884C262.335 23.2253 263.148 23.2807 263.923 23.3546C264.698 23.4284 265.289 23.5023 265.695 23.5761L265.64 29.2255C265.049 29.2255 264.385 29.2255 263.646 29.2255C262.945 29.1886 262.335 29.1701 261.818 29.1701C261.006 29.1701 260.341 29.2994 259.824 29.5578C259.344 29.8163 258.994 30.2409 258.772 30.8317C258.587 31.4225 258.495 32.2718 258.495 33.3795V35.0411H265.142V41.189H258.495V62.8451H251.129Z" fill="black"/>
<path d="M280.915 63.4543C277.777 63.4543 275.248 62.9374 273.327 61.9035C271.444 60.8696 270.078 59.2819 269.229 57.1403C268.38 54.9617 267.955 52.1555 267.955 48.7215C267.955 45.3984 268.398 42.7029 269.284 40.6351C270.17 38.5304 271.574 36.9796 273.494 35.9827C275.414 34.9488 277.888 34.4319 280.915 34.4319C283.98 34.4319 286.454 34.9488 288.337 35.9827C290.257 36.9796 291.66 38.5304 292.547 40.6351C293.47 42.7029 293.931 45.3984 293.931 48.7215C293.931 52.1555 293.507 54.9617 292.657 57.1403C291.808 59.2819 290.423 60.8696 288.503 61.9035C286.62 62.9374 284.091 63.4543 280.915 63.4543ZM280.915 57.3618C282.466 57.3618 283.629 57.0849 284.405 56.531C285.18 55.9402 285.697 55.0171 285.956 53.7617C286.251 52.4694 286.399 50.7893 286.399 48.7215C286.399 46.6907 286.233 45.0845 285.9 43.9029C285.568 42.6844 285.014 41.8167 284.239 41.2998C283.463 40.7828 282.355 40.5244 280.915 40.5244C279.512 40.5244 278.405 40.7828 277.592 41.2998C276.817 41.8167 276.263 42.6844 275.931 43.9029C275.598 45.0845 275.432 46.6907 275.432 48.7215C275.432 50.7893 275.561 52.4694 275.82 53.7617C276.115 55.0171 276.651 55.9402 277.426 56.531C278.201 57.0849 279.365 57.3618 280.915 57.3618Z" fill="black"/>
<path d="M299.192 62.8451V23.6869H306.559V62.8451H299.192Z" fill="black"/>
<path d="M312.872 62.8451V35.0411H320.238V62.8451H312.872ZM312.872 30.6102V24.2961H320.293V30.6102H312.872Z" fill="black"/>
<path d="M338.357 63.4543C335.219 63.4543 332.689 62.9374 330.769 61.9035C328.886 60.8696 327.52 59.2819 326.671 57.1403C325.821 54.9617 325.397 52.1555 325.397 48.7215C325.397 45.3984 325.84 42.7029 326.726 40.6351C327.612 38.5304 329.015 36.9796 330.935 35.9827C332.855 34.9488 335.329 34.4319 338.357 34.4319C341.422 34.4319 343.896 34.9488 345.779 35.9827C347.699 36.9796 349.102 38.5304 349.988 40.6351C350.911 42.7029 351.373 45.3984 351.373 48.7215C351.373 52.1555 350.948 54.9617 350.099 57.1403C349.25 59.2819 347.865 60.8696 345.945 61.9035C344.062 62.9374 341.533 63.4543 338.357 63.4543ZM338.357 57.3618C339.908 57.3618 341.071 57.0849 341.847 56.531C342.622 55.9402 343.139 55.0171 343.397 53.7617C343.693 52.4694 343.84 50.7893 343.84 48.7215C343.84 46.6907 343.674 45.0845 343.342 43.9029C343.01 42.6844 342.456 41.8167 341.68 41.2998C340.905 40.7828 339.797 40.5244 338.357 40.5244C336.954 40.5244 335.846 40.7828 335.034 41.2998C334.259 41.8167 333.705 42.6844 333.372 43.9029C333.04 45.0845 332.874 46.6907 332.874 48.7215C332.874 50.7893 333.003 52.4694 333.262 53.7617C333.557 55.0171 334.092 55.9402 334.868 56.531C335.643 57.0849 336.806 57.3618 338.357 57.3618Z" fill="black"/>
<path d="M13.6915 63.4306C12.2929 63.4306 10.7655 63.3375 9.10927 63.1513C7.45304 63.0024 5.83362 62.8162 4.25099 62.5928C2.70518 62.3322 1.38019 62.1088 0.276039 61.9227L0.772908 55.835C1.91387 55.984 3.23885 56.1515 4.74786 56.3377C6.25687 56.4866 7.74748 56.6169 9.21969 56.7286C10.7287 56.8403 12.0353 56.8962 13.1394 56.8962C15.2373 56.8962 16.7647 56.4866 17.7217 55.6675C18.6786 54.8111 19.1571 53.4894 19.1571 51.7022C19.1571 50.7341 18.9547 49.9708 18.5498 49.4123C18.1817 48.8166 17.5008 48.3512 16.5071 48.0161C15.5134 47.6438 14.1332 47.2901 12.3665 46.955C9.42212 46.3965 7.02978 45.7076 5.18953 44.8885C3.38607 44.0694 2.06109 42.9152 1.21457 41.4258C0.404857 39.9365 0 37.9446 0 35.4499C0 32.5458 0.533675 30.2745 1.60102 28.6363C2.66837 26.9608 4.19579 25.7693 6.18326 25.0619C8.17074 24.3545 10.5079 24.0008 13.1946 24.0008C14.4092 24.0008 15.7894 24.0752 17.3352 24.2242C18.9178 24.3359 20.4637 24.4848 21.9727 24.671C23.5185 24.8571 24.8251 25.0619 25.8924 25.2853L25.5612 31.4288C24.457 31.2798 23.1688 31.1495 21.6966 31.0378C20.2612 30.8889 18.8258 30.7586 17.3904 30.6469C15.9918 30.5352 14.7957 30.4793 13.8019 30.4793C11.704 30.4793 10.1582 30.8144 9.16448 31.4846C8.17074 32.1548 7.67387 33.2346 7.67387 34.7239C7.67387 35.8409 7.8947 36.6972 8.33637 37.293C8.77803 37.8887 9.51413 38.3727 10.5447 38.7451C11.612 39.1174 13.0658 39.5083 14.9061 39.9179C17.0776 40.4019 18.9178 40.9232 20.4269 41.4817C21.9727 42.0402 23.2056 42.7104 24.1258 43.4923C25.0827 44.2742 25.782 45.2795 26.2237 46.5082C26.6653 47.7369 26.8862 49.282 26.8862 51.1437C26.8862 54.1223 26.3525 56.5239 25.2851 58.3483C24.2546 60.1355 22.7456 61.4386 20.7581 62.2578C18.8074 63.0396 16.4519 63.4306 13.6915 63.4306Z" fill="black"/>
<path d="M42.9331 63.4306C39.8782 63.4306 37.4491 62.9093 35.6456 61.8668C33.879 60.8243 32.6092 59.2419 31.8363 57.1196C31.0634 54.9973 30.6769 52.3351 30.6769 49.1331C30.6769 45.6704 31.1554 42.8407 32.1123 40.6439C33.1061 38.4472 34.5415 36.8276 36.4185 35.785C38.2956 34.7053 40.6143 34.1654 43.3747 34.1654C47.4601 34.1654 50.5333 35.2079 52.5944 37.293C54.6923 39.378 55.7412 42.6732 55.7412 47.1784L55.41 51.3112H38.0748C38.1116 53.3963 38.5348 54.9601 39.3446 56.0026C40.1543 57.0451 41.5529 57.5664 43.5403 57.5664C44.6813 57.5664 45.9327 57.5478 47.2945 57.5105C48.6563 57.4361 49.9996 57.3616 51.3246 57.2871C52.6864 57.2127 53.8458 57.1382 54.8027 57.0637L54.9683 62.2578C54.0482 62.4067 52.8888 62.5742 51.4903 62.7604C50.0917 62.9466 48.6379 63.0955 47.1288 63.2072C45.6566 63.3561 44.258 63.4306 42.9331 63.4306ZM38.0748 46.564H48.3986C48.3986 44.0322 47.9938 42.2636 47.1841 41.2583C46.4111 40.253 45.1414 39.7504 43.3747 39.7504C41.6449 39.7504 40.3199 40.2716 39.3998 41.3141C38.5164 42.3567 38.0748 44.1066 38.0748 46.564Z" fill="black"/>
<path d="M69.4569 63.4306C67.0646 63.4306 65.2059 62.9279 63.8809 61.9227C62.5928 60.8801 61.6726 59.3163 61.1206 57.2313C60.6053 55.1462 60.3476 52.5213 60.3476 49.3565V34.7797H67.6903V49.0214C67.6903 50.9947 67.7823 52.5585 67.9663 53.7128C68.1871 54.867 68.6104 55.6861 69.2361 56.1701C69.8618 56.6542 70.7635 56.8962 71.9413 56.8962C73.0822 56.8962 74.1496 56.7473 75.1433 56.4494C76.1371 56.1515 76.9284 55.8537 77.5172 55.5558V34.7797H84.8599V62.8162H77.5725V61.0849C76.3211 61.7923 75.0697 62.3694 73.8183 62.8162C72.6038 63.2258 71.15 63.4306 69.4569 63.4306Z" fill="black"/>
<defs>
<linearGradient id="paint0_linear_8_211" x1="91.7173" y1="-4.50015" x2="198.607" y2="126.92" gradientUnits="userSpaceOnUse">
<stop stop-color="#AC45EC"/>
<stop offset="0.536458" stop-color="#6D3CD6"/>
<stop offset="0.947917" stop-color="#4200FF"/>
</linearGradient>
<linearGradient id="paint1_linear_8_211" x1="141.719" y1="-6.84545e-07" x2="141.719" y2="191.256" gradientUnits="userSpaceOnUse">
<stop stop-color="#8000FF"/>
<stop offset="1" stop-color="#8000FF" stop-opacity="0"/>
</linearGradient>
<linearGradient id="paint2_linear_8_211" x1="153.739" y1="48.8587" x2="188.226" y2="87.5465" gradientUnits="userSpaceOnUse">
<stop/>
<stop offset="1" stop-opacity="0"/>
</linearGradient>
</defs>
</svg>
