<svg width="273" height="110" viewBox="0 0 273 110" fill="none" xmlns="http://www.w3.org/2000/svg">
<path d="M0 28.6845C0 21.0352 6.20098 14.8342 13.8503 14.8342H96.9519C104.601 14.8342 110.802 21.0352 110.802 28.6845V84.0856C110.802 91.7348 104.601 97.9358 96.9519 97.9358H13.8503C6.20098 97.9358 0 91.7348 0 84.0856V56.385V28.6845Z" fill="url(#paint0_linear_7_158)"/>
<path d="M36.0107 9.29411C36.0107 4.70454 39.7313 0.983948 44.3209 0.983948H69.2513C73.8409 0.983948 77.5615 4.70453 77.5615 9.29411V12.0642H71.4057V9.68985C71.4057 8.15999 70.1655 6.91979 68.6356 6.91979H44.9363C43.4064 6.91979 42.1662 8.15999 42.1662 9.68985V12.0642H36.0107V9.29411Z" fill="url(#paint1_linear_7_158)"/>
<path d="M34.6262 60.5401L38.7807 97.9358H98.3369C98.3369 97.9358 106.647 95.1658 109.417 91.0107C112.187 86.8556 83.1016 41.1497 83.1016 41.1497C83.1016 41.1497 46.4834 37.7804 41.5509 43.9198C31.3822 56.5766 34.6262 60.5401 34.6262 60.5401Z" fill="url(#paint2_linear_7_158)" fill-opacity="0.15"/>
<path fill-rule="evenodd" clip-rule="evenodd" d="M40.7953 36.9946C36.623 36.9946 33.2406 40.0012 33.2406 43.7099V104.861C33.2406 107.156 35.1009 109.016 37.3957 109.016C39.6905 109.016 41.5508 107.156 41.5508 104.861V81.3155H75.5469C79.7192 81.3155 83.1016 78.309 83.1016 74.6002V43.7099C83.1016 40.0012 79.7193 36.9946 75.5469 36.9946H40.7953ZM74.7914 56.385V52.4398C74.7914 43.7099 67.8663 43.7099 65.7258 43.7099H50.6164C46.4441 43.7099 41.5508 45.3048 41.5508 52.4398V56.385H74.7914ZM41.5508 59.1551V65.8704C41.5508 71.6203 46.4441 73.0053 50.6164 73.0053H65.7258C72.0214 73.0053 74.7914 69.5791 74.7914 65.8704V59.1551H41.5508Z" fill="white"/>
<path d="M141.238 59.1551C141.238 75.9835 130.696 84.0856 117.692 84.0856C104.688 84.0856 94.1466 75.9835 94.1466 59.1551C94.1466 42.3266 104.688 36.9946 117.692 36.9946C130.696 36.9946 141.238 42.3266 141.238 59.1551Z" fill="white"/>
<path d="M115.516 73.9266C112.407 73.9266 109.902 73.4413 108 72.4707C106.135 71.5001 104.782 70.0095 103.941 67.999C103.1 65.9538 102.679 63.3194 102.679 60.0956C102.679 56.9758 103.118 54.4453 103.996 52.5042C104.874 50.5283 106.263 49.0724 108.165 48.1365C110.067 47.1659 112.517 46.6806 115.516 46.6806C118.552 46.6806 121.002 47.1659 122.867 48.1365C124.769 49.0724 126.159 50.5283 127.036 52.5042C127.951 54.4453 128.408 56.9758 128.408 60.0956C128.408 63.3194 127.987 65.9538 127.146 67.999C126.305 70.0095 124.933 71.5001 123.032 72.4707C121.166 73.4413 118.661 73.9266 115.516 73.9266ZM115.516 68.207C117.052 68.207 118.204 67.947 118.972 67.4271C119.74 66.8724 120.252 66.0058 120.508 64.8273C120.801 63.614 120.947 62.0368 120.947 60.0956C120.947 58.1891 120.782 56.6812 120.453 55.5719C120.124 54.428 119.576 53.6134 118.808 53.1281C118.04 52.6428 116.942 52.4002 115.516 52.4002C114.126 52.4002 113.029 52.6428 112.225 53.1281C111.457 53.6134 110.908 54.428 110.579 55.5719C110.25 56.6812 110.085 58.1891 110.085 60.0956C110.085 62.0368 110.213 63.614 110.469 64.8273C110.762 66.0058 111.292 66.8724 112.06 67.4271C112.828 67.947 113.98 68.207 115.516 68.207Z" fill="black"/>
<path d="M133.399 73.3546V47.2525H140.696V50.3203C141.317 49.8697 142.085 49.4017 143 48.9164C143.914 48.3965 144.901 47.9285 145.962 47.5125C147.059 47.0619 148.101 46.7672 149.089 46.6286V53.3361C148.138 53.4747 147.132 53.7174 146.072 54.064C145.011 54.376 144.005 54.7227 143.054 55.104C142.14 55.4853 141.354 55.8319 140.696 56.1439V73.3546H133.399Z" fill="black"/>
<path d="M162.555 73.9786C160.543 73.9786 158.916 73.7013 157.672 73.1466C156.429 72.592 155.533 71.6388 154.984 70.2868C154.472 68.9003 154.216 66.9764 154.216 64.5153V53.0241H150.98V47.2525H154.216V40.337H161.513V47.2525H168.534V53.0241H161.513V62.6954C161.513 64.0473 161.567 65.1046 161.677 65.8672C161.823 66.6298 162.116 67.1671 162.555 67.4791C162.994 67.791 163.67 67.947 164.585 67.947C164.841 67.947 165.225 67.9297 165.737 67.895C166.249 67.8604 166.761 67.8257 167.273 67.791C167.785 67.7564 168.205 67.7217 168.534 67.687L168.754 73.2506C167.876 73.3893 166.816 73.5453 165.572 73.7186C164.365 73.8919 163.359 73.9786 162.555 73.9786Z" fill="black"/>
<path d="M173.712 73.3546V53.0241H170.969V47.2525H173.712V45.7447C173.712 43.2835 173.949 41.3423 174.425 39.9211C174.937 38.4998 175.796 37.4946 177.003 36.9053C178.21 36.316 179.838 36.0214 181.886 36.0214C182.471 36.0214 183.166 36.056 183.97 36.1254C184.811 36.16 185.616 36.212 186.384 36.2813C187.152 36.3507 187.737 36.42 188.139 36.4893L188.085 41.7929C187.499 41.7929 186.841 41.7929 186.11 41.7929C185.415 41.7583 184.811 41.7409 184.299 41.7409C183.495 41.7409 182.836 41.8623 182.324 42.1049C181.849 42.3476 181.502 42.7462 181.282 43.3008C181.099 43.8555 181.008 44.6527 181.008 45.6927V47.2525H187.591V53.0241H181.008V73.3546H173.712Z" fill="black"/>
<path d="M203.214 73.9266C200.106 73.9266 197.6 73.4413 195.699 72.4707C193.834 71.5001 192.48 70.0095 191.639 67.999C190.798 65.9538 190.377 63.3194 190.377 60.0956C190.377 56.9758 190.816 54.4453 191.694 52.5042C192.572 50.5283 193.962 49.0724 195.863 48.1365C197.765 47.1659 200.215 46.6806 203.214 46.6806C206.25 46.6806 208.7 47.1659 210.565 48.1365C212.467 49.0724 213.857 50.5283 214.735 52.5042C215.649 54.4453 216.106 56.9758 216.106 60.0956C216.106 63.3194 215.685 65.9538 214.844 67.999C214.003 70.0095 212.632 71.5001 210.73 72.4707C208.865 73.4413 206.36 73.9266 203.214 73.9266ZM203.214 68.207C204.75 68.207 205.902 67.947 206.67 67.4271C207.438 66.8724 207.95 66.0058 208.206 64.8273C208.499 63.614 208.645 62.0368 208.645 60.0956C208.645 58.1891 208.481 56.6812 208.152 55.5719C207.822 54.428 207.274 53.6134 206.506 53.1281C205.738 52.6428 204.641 52.4002 203.214 52.4002C201.825 52.4002 200.727 52.6428 199.923 53.1281C199.155 53.6134 198.606 54.428 198.277 55.5719C197.948 56.6812 197.783 58.1891 197.783 60.0956C197.783 62.0368 197.911 63.614 198.167 64.8273C198.46 66.0058 198.99 66.8724 199.758 67.4271C200.526 67.947 201.678 68.207 203.214 68.207Z" fill="black"/>
<path d="M221.317 73.3546V36.5933H228.613V73.3546H221.317Z" fill="black"/>
<path d="M234.866 73.3546V47.2525H242.162V73.3546H234.866ZM234.866 43.0928V37.1653H242.217V43.0928H234.866Z" fill="black"/>
<path d="M260.108 73.9266C257 73.9266 254.495 73.4413 252.593 72.4707C250.728 71.5001 249.374 70.0095 248.533 67.999C247.692 65.9538 247.272 63.3194 247.272 60.0956C247.272 56.9758 247.71 54.4453 248.588 52.5042C249.466 50.5283 250.856 49.0724 252.757 48.1365C254.659 47.1659 257.109 46.6806 260.108 46.6806C263.144 46.6806 265.594 47.1659 267.459 48.1365C269.361 49.0724 270.751 50.5283 271.629 52.5042C272.543 54.4453 273 56.9758 273 60.0956C273 63.3194 272.579 65.9538 271.738 67.999C270.897 70.0095 269.526 71.5001 267.624 72.4707C265.759 73.4413 263.254 73.9266 260.108 73.9266ZM260.108 68.207C261.644 68.207 262.796 67.947 263.564 67.4271C264.332 66.8724 264.844 66.0058 265.1 64.8273C265.393 63.614 265.539 62.0368 265.539 60.0956C265.539 58.1891 265.375 56.6812 265.046 55.5719C264.716 54.428 264.168 53.6134 263.4 53.1281C262.632 52.6428 261.535 52.4002 260.108 52.4002C258.719 52.4002 257.621 52.6428 256.817 53.1281C256.049 53.6134 255.5 54.428 255.171 55.5719C254.842 56.6812 254.677 58.1891 254.677 60.0956C254.677 62.0368 254.805 63.614 255.061 64.8273C255.354 66.0058 255.884 66.8724 256.652 67.4271C257.42 67.947 258.572 68.207 260.108 68.207Z" fill="black"/>
<defs>
<linearGradient id="paint0_linear_7_158" x1="5.3802e-06" y1="-4.41766" x2="127.768" y2="155.774" gradientUnits="userSpaceOnUse">
<stop stop-color="#AC45EC"/>
<stop offset="0.536458" stop-color="#6D3CD6"/>
<stop offset="0.947917" stop-color="#4200FF"/>
</linearGradient>
<linearGradient id="paint1_linear_7_158" x1="61.2029" y1="0.983947" x2="61.203" y2="230.552" gradientUnits="userSpaceOnUse">
<stop stop-color="#8000FF"/>
<stop offset="1" stop-color="#8000FF" stop-opacity="0"/>
</linearGradient>
<linearGradient id="paint2_linear_7_158" x1="75.9152" y1="59.63" x2="117.211" y2="106.87" gradientUnits="userSpaceOnUse">
<stop/>
<stop offset="1" stop-opacity="0"/>
</linearGradient>
</defs>
</svg>
